<?xml version="1.0" encoding="utf-8"?>
<svg xmlns="http://www.w3.org/2000/svg" xmlns:xlink="http://www.w3.org/1999/xlink" version= "1.1" width="600px" height="600px" viewBox="240 795 600 600">
<g id="layer1">
<g style="fill:url(#grad0); fill-opacity:1.0; stroke-linejoin: miter">
<path d="M671.65704,1068.3379L673.83875,1087.7607Q675.504,1147.3271,640.0533,1189.4675Q604.30975,1231.6306,546.4029,1235.0634Q490.62442,1235.4248,450.29272,1196.5698Q437.34772,1183.994,427.6158,1168.1881L418.8743,1151.7157Q411.0296,1134.5062,407.52057,1114.9125Q398.32916,1054.504,428.55112,1007.9862Q458.77304,961.46826,514.62604,950.05457Q571.0144,941.677,615.3238,975.053Q659.6333,1008.429,671.65704,1068.3379"/>
</g>
<g style="fill:rgb(0,0,0); fill-opacity:1.0; stroke-linejoin: miter">
<path d="M435.28625,1201.0502L435.46423,1198.5046L435.64224,1195.9591L435.7633,1194.2283L435.38733,1199.6046L435.28625,1201.0502 M436.4696,1184.1274L436.3028,1186.5134L436.13596,1188.8994L436.03976,1190.2748L435.9436,1191.6501L436.4696,1184.1274 M435.20343,1202.235L435.38345,1199.6606L435.56348,1197.0864L435.5583,1197.1603L435.5531,1197.2341L435.20343,1202.235 M437.16782,1174.1431L437.1169,1174.8711L437.06598,1175.5991L437.20624,1173.5936L437.34647,1171.588L437.1316,1174.6611L437.16782,1174.1431 M447.49817,1026.4115L447.45697,1027.0011L447.12897,1031.6915L447.49817,1026.4115 M444.3982,1070.7434L444.2559,1072.7783L444.11362,1074.8132L444.4363,1070.1982L444.50043,1069.2816L444.5645,1068.3651L444.3982,1070.7434 M445.54565,1054.334L445.4496,1055.7076L445.13397,1060.2214L447.2095,1030.5398L445.54565,1054.334 M439.52264,1140.4675L439.3447,1143.0118L440.25323,1130.0197L440.1494,1131.504L440.3707,1128.3392L440.7103,1123.4827L439.52264,1140.4675 M431.85458,1250.1255L431.68195,1252.5945L431.5093,1255.0632L431.95816,1248.6445L432.04904,1247.3447L431.85458,1250.1255 M446.24408,1044.3461L446.0607,1046.9683L445.87735,1049.5905L446.0179,1047.5803L446.15848,1045.5703L446.29626,1043.5999L446.43405,1041.6294L446.24408,1044.3461 M439.65283,1138.6055L439.54065,1140.2097L439.42847,1141.814L439.2574,1144.2605L439.0863,1146.7072L439.0352,1147.4381L438.9841,1148.1691L439.1452,1145.8652L439.3063,1143.5614L439.65283,1138.6055 M439.03748,1147.4053L439.35828,1142.8182L439.8277,1136.1046L438.9966,1147.9897L439.03748,1147.4053 M439.48703,1140.9761L439.2065,1144.9878L439.209,1144.952L438.86984,1149.8024L439.80695,1136.4015L439.43805,1141.677L439.48703,1140.9761 M440.6823,1123.8829L440.74338,1123.0104L440.18115,1131.0498L440.4439,1127.2926L440.95123,1120.0374L440.89316,1120.8682L440.8522,1121.454L440.6823,1123.8829 M438.44577,1155.8673L438.6437,1153.0364L438.71082,1152.0771L438.78214,1151.057L439.11142,1146.348L438.44577,1155.8673 M440.81244,1122.0221L440.54816,1125.8016L451.90985,963.3214L430.6469,1267.3961L441.66562,1109.821L440.76114,1122.7561L440.81244,1122.0221 M433.13257,1231.8496L432.86957,1235.6108L432.893,1235.2753L432.65802,1238.636L432.72266,1237.7114L433.19458,1230.9625L433.0827,1232.5625L433.13257,1231.8496 M434.18573,1216.789L434.0659,1218.5028L433.946,1220.2167L434.1866,1216.7758L434.18573,1216.789 M430.87244,1264.1709L430.8079,1265.0939L430.9058,1263.6936L431.13303,1260.4442L430.87244,1264.1709 M430.22153,1273.4795L430.37213,1271.3258L430.7271,1266.2491L430.22153,1273.4795 M431.8665,1249.9558L431.78043,1251.186L432.24237,1244.5798L431.8665,1249.9558 M445.9601,1048.4067L446.06525,1046.9036L446.17038,1045.4004L446.22903,1044.5616L446.28766,1043.7229L445.9601,1048.4067 M450.5159,983.2567L450.83676,978.6673L451.16644,973.9535L451.5843,967.9771L450.5159,983.2567 M434.31598,1214.926L434.13916,1217.4545L433.8743,1221.2422L434.31598,1214.926 M432.73026,1237.6028L433.5406,1226.0144L432.58936,1239.6184L432.2981,1243.783L432.04266,1247.436L432.20975,1245.0466L431.5179,1254.9398L431.81244,1250.7288L432.13535,1246.1101L431.78745,1251.0858L432.84152,1236.0122L432.71027,1237.8889L432.73026,1237.6028 M430.73038,1266.2024L430.7167,1266.398L430.70303,1266.5934Q430.7739,1265.5803,430.84476,1264.5671L430.73038,1266.2024 M428.8016,1293.7856L428.97235,1291.3438L429.14307,1288.902L429.15176,1288.7781L428.80505,1293.7358Q428.7973,1293.8461,428.8016,1293.7856 M433.70056,1223.727L433.77084,1222.722L433.84113,1221.717L433.5481,1225.9075L433.4925,1226.7023L433.70056,1223.727 M440.35095,1128.622L440.19778,1130.8121L440.04462,1133.0024L439.95496,1134.2849Q439.77963,1136.7927,439.94696,1134.3992L440.35095,1128.622 M430.2571,1272.9707L430.3336,1271.8768L430.41003,1270.783L430.55923,1268.6499L430.7084,1266.5166L430.2571,1272.9707 M449.3441,1000.0141L449.13837,1002.9562L449.62958,995.9309L449.88138,992.3303L449.28537,1000.8538L449.3441,1000.0141 M449.9241,991.71967L449.7594,994.0747L449.5947,996.42975L449.3106,1000.4927L449.9241,991.71967 M435.6412,1195.974L435.47015,1198.4204L435.29907,1200.8668L435.54834,1197.3022L435.66327,1195.6587L435.6412,1195.974"/>
</g>
<g style="fill:rgb(0,0,0); fill-opacity:1.0; stroke-linejoin: miter">
<path d="M433.7799,1017.62946L434.3331,1022.8338L434.23428,1024.3417L433.79456,1018.90295 Z M435.09088,1034.3917L434.6851,1029.615L434.603,1027.0127L435.15784,1032.4739 Z M445.16357,1043.6747L445.56503,1042.3049L445.72498,1046.2151L445.4546,1043.0178 Z M441.6283,1190.194L441.4813,1189.1143L441.65143,1185.5995L441.78067,1188.4526 Z M442.88553,1146.6783L443.27673,1142.533L443.30423,1147.3395L443.1399,1148.8961 Z M442.20398,1163.1672L442.59436,1161.7207L442.93015,1157.1178L442.71573,1162.2893L443.04028,1165.5685L443.45834,1162.5576L443.41318,1166.6838L443.02374,1168.6743L443.2714,1169.5725L443.1499,1172.7487L442.90582,1174.8563L442.91064,1177.6641L442.575,1182.5986L442.2773,1186.9879L442.29022,1184.2848L442.158,1182.0946L441.82037,1180.9154L442.0868,1179.6362L441.90167,1178.3003L441.95166,1173.0767L442.13043,1168.1368 Z M443.52707,1077.4241L443.99008,1074.8844L444.47595,1077.6039L443.84055,1080.0157L444.60712,1081.4847L444.40112,1083.7164L444.66476,1088.2343L444.47104,1086.0703L444.2611,1089.9795L444.07898,1094.6682L443.88324,1090.4473L444.16245,1087.0481L443.72516,1085.8866L443.81155,1080.9813 Z M432.65552,969.0057L432.28934,964.1436L433.09528,969.2153L433.18823,971.4897 Z M437.07367,1172.5269L437.18558,1167.5873L437.2155,1171.5226L436.8656,1175.2133 Z M439.86105,1079.2963L439.5255,1076.1235L439.19318,1071.3052L439.526,1070.086L439.66602,1074.66 Z M438.81387,1070.7241L438.6576,1075.264L438.82312,1078.1431L438.74442,1081.8773L438.47525,1081.1558L438.23703,1076.3146L438.03958,1071.0239L438.00455,1069.7958 Z M437.862,1077.0232L437.70276,1073.0818L437.78476,1073.2162L437.63638,1068.2798L437.99667,1073.3708L438.0619,1078.0935L438.0334,1081.1302L437.68018,1076.0659 Z M439.64355,1093.7579L440.0292,1094.5145L440.04172,1090.1055L440.19684,1088.543L440.26416,1086.6941L440.61075,1091.233L440.38507,1094.4961L440.2421,1097.9435L439.85843,1097.1167L439.52606,1095.646 Z M446.74173,1062.0094L447.09793,1064.896L446.76755,1065.9104L447.103,1067.0214L446.5429,1071.7471L446.36768,1067.3163L446.71024,1062.2007 Z M437.92935,1095.5006L438.28024,1091.8824L439.0069,1092.5319L439.41638,1094.2422L439.18326,1097.5034L439.0149,1099.1516L439.2796,1100.8435L439.76483,1100.9735L439.74496,1102.8639L439.6922,1105.0787L439.3987,1104.1875L439.159,1104.719L439.02487,1101.6497L438.60803,1105.6298L438.52905,1110.4255L438.47592,1113.6249L438.388,1118.8097L438.10583,1119.8813L437.63522,1119.3505L437.20197,1121.845L436.99792,1125.8157L436.93628,1130.9554L436.89328,1136.0029L436.86758,1140.8359L436.8468,1145.7085L436.82605,1150.6475L436.80508,1155.498L436.70895,1160.6179L436.9706,1159.2578L436.9934,1163.1613L436.76404,1168.3557L436.65762,1172.9293L436.274,1178.7573L436.0122,1180.2172L435.64944,1185.1033L435.34674,1189.5292L434.93802,1194.4485L434.6171,1199.4486L434.00427,1203.866L433.54303,1209.0477L432.92947,1212.9761L432.3201,1217.8855L431.7847,1220.8431L432.08228,1220.4392L431.49292,1225.5198L430.8986,1230.7217L431.66602,1227.6577L430.91528,1232.7808L430.33734,1237.2732L430.257,1239.9813L429.5278,1245.1161L430.0355,1243.8229L429.95276,1245.2421L429.07944,1250.1122L429.39548,1249.0817L430.3627,1243.5133L431.11008,1238.8672L431.0117,1241.5991L430.10065,1246.9489L430.20178,1249.2664L431.3143,1244.2284L431.41843,1245.7183L432.07272,1242.8611L432.7244,1238.3564L433.28574,1233.7103L434.12054,1228.1002L433.66473,1232.411L434.25455,1230.5016L435.2856,1225.9252L434.73874,1227.4948L435.37897,1222.5337L435.97424,1218.4718L436.79553,1214.2566L437.25452,1209.9482L438.01852,1204.823L438.6168,1201.2966L438.9101,1200.9403L438.2258,1206.0897L437.6587,1210.885L438.14865,1208.8469L437.51074,1214.1195L437.84003,1212.6364L438.5148,1207.5886L439.4208,1203.4742L439.7647,1201.4963L439.31146,1205.628L438.57538,1210.8074L438.7463,1212.9037L439.22467,1207.9104L440.01102,1202.4867L440.37436,1202.5099L440.60797,1202.3848L439.75372,1207.9833L439.91302,1209.6876L440.72055,1204.7026L441.50125,1199.9775L441.43484,1201.728L442.51236,1197.7251L443.10873,1191.4934L443.3187,1186.871L442.84317,1184.2538L443.18964,1181.7222L443.3731,1182.9835L443.402,1178.1227L442.94986,1179.6185L443.24,1175.4596L443.48398,1170.7017L443.8213,1166.6407L443.94885,1168.6771L444.14258,1163.8436L443.84393,1163.5151L444.32022,1163.1017L444.65823,1164.6447L444.9924,1159.5223L445.19547,1153.8652L444.96835,1149.0879L444.77075,1149.2391L444.8371,1144.0345L444.9312,1145.1791L445.43784,1144.3176L445.71585,1138.5024L445.6004,1134.313L446.001,1129.7339L445.97424,1124.6674L445.83313,1120.2915L445.54083,1123.9716L445.3206,1123.073L445.19263,1120.0607L445.0741,1119.783L444.67725,1118.4156L444.94495,1115.3717L444.38254,1114.0914L444.12622,1111.6686L443.96588,1116.3773L443.9806,1121.4352L443.85815,1121.7677L443.82166,1116.2966L443.7301,1110.8716L443.55035,1107.1844L443.48135,1103.8112L443.402,1099.5548L443.7637,1095.9197L444.00806,1098.0009L444.2588,1103.0433L444.3985,1101.3972L444.6776,1101.3326L445.17972,1097.1375L445.12988,1099.785L445.09412,1104.6438L444.91187,1108.5406L445.2615,1110.3547L445.29697,1105.9508L445.69778,1104.0892L446.3443,1102.2208L446.6986,1096.7811L446.5914,1093.6614L446.5462,1089.1866L446.31262,1086.5367L446.16257,1081.6456L446.50497,1077.3752L446.83713,1072.0737L446.97925,1070.1886L446.8866,1074.5931L447.25052,1075.5282L447.33353,1071.3458L447.6364,1066.2147L447.94077,1062.1837L447.89203,1058.9424L448.02982,1054.1019L448.00803,1048.85L447.92828,1043.7042L447.80905,1038.52L447.6988,1033.6498L447.5745,1029.68L447.17346,1024.6025L447.3252,1028.1101L447.08597,1026.7953L447.009,1029.6251L446.76892,1031.4589L446.78348,1035.32L446.80527,1039.4067L447.0855,1044.5017L447.04892,1048.354L447.3153,1051.6967L447.2175,1053.8928L447.35516,1056.5616L447.32773,1059.915L446.96097,1062.5636L446.8454,1060.364L446.2153,1060.5514L446.18283,1055.6698L446.3778,1053.5171L446.53143,1052.2217L446.21103,1049.038L446.86697,1050.9205L446.15808,1047.7769L446.0629,1043.9365L445.9553,1039.9786L445.79874,1036.0897L445.497,1031.2142L445.22906,1027.2593L444.86356,1023.6859L444.36136,1023.9039L443.77707,1019.46924L443.31042,1014.82166L443.03482,1010.77014L442.78207,1005.73956L442.5124,1005.1487L442.13007,1007.8707L441.9272,1010.2094L441.9186,1012.4219L441.4838,1010.72205L441.49115,1014.52747L441.35437,1012.3871L440.42242,1009.90375L439.94537,1006.7717L439.40665,1003.74207L439.54718,1000.6471L439.42807,997.2479L439.3849,994.7915L439.13126,994.25085L439.063,995.36707L438.6255,993.982L438.01855,988.6477L438.62006,989.3712L438.71295,987.43274L438.60214,985.77655L438.00723,981.16L438.26257,981.16656L438.68753,981.96155L438.03387,978.2003L437.16147,973.6169L436.54968,968.4028L435.93045,963.3407L436.04892,963.31537L435.95236,961.7866L435.17056,960.443L434.18362,955.1462L434.7335,955.0945L433.8903,952.40094L433.6048,954.43823L433.82037,956.57947L433.3442,953.88L433.08133,955.3879L432.64688,957.8723L433.3511,959.5129L432.84622,959.7158L433.03494,961.6362L432.34918,961.0952L432.002,961.6155L431.4709,962.3573L431.66022,965.1265L431.14368,962.4873L431.11386,963.5022L431.178,966.965L431.9986,969.76953L432.0545,973.4976L432.717,976.0091L433.37564,978.97363L433.6509,977.145L433.85617,975.534L434.43423,980.0947L434.36505,981.6321L435.01938,985.2632L435.2253,987.9425L434.96,988.38965L435.84525,992.32214L436.03522,995.0354L436.67218,996.5449L436.6064,991.6213L435.93866,986.942L435.71426,983.92096L436.80835,986.5692L437.65714,991.0647L437.4371,993.551L437.0732,989.5468L436.95053,989.54425L437.20047,993.10767L437.63763,998.3415L437.97064,1002.8188L437.79254,998.3108L438.57022,1000.97217L438.9636,1002.9806L439.09833,1006.34235L438.62717,1007.77606L438.4822,1009.73047L438.61765,1009.2049L438.80457,1011.07947L438.68777,1012.8273L438.264,1013.5886L437.92587,1010.2593L437.4708,1006.1412L436.80695,1004.8215L437.27454,1007.34564L437.6103,1010.557L437.21637,1010.66113L436.85687,1013.2102L436.81387,1014.2816L436.747,1017.9496L436.82184,1020.3315L437.03635,1024.1437L437.21387,1029.0077L436.98877,1031.502L436.82263,1030.614L437.19946,1033.4761L437.44897,1038.0176L437.48718,1041.4844L437.02005,1036.3422L436.4427,1031.69L436.08066,1032.3525L436.2162,1036.2042L436.62442,1041.2859L436.7953,1044.6589L436.826,1048.5942L436.585,1049.2026L436.28488,1047.8251L435.90402,1043.2781L435.25833,1038.2928L435.10577,1039.691L435.4558,1044.6661L435.7706,1049.7739L436.08813,1055.1328L436.36877,1060.3446L436.65335,1065.3542L436.97797,1070.0416L437.38724,1072.3448L437.3035,1073.3912L437.20306,1075.1523L437.37482,1080.1975L437.44083,1085.3846L437.4286,1090.43L437.37088,1095.1781L437.3046,1100.1941L437.32242,1104.972L437.41788,1106.0824L437.42438,1100.8835L437.61026,1095.6665 Z M433.71683,987.05444L433.32056,983.5518L433.53955,983.96747L433.22345,980.19556L433.86032,981.4707L434.44388,986.82056L434.0621,984.7717L434.26114,988.2315L433.68912,985.9726 Z M436.567,1001.9081L436.31494,998.39935L437.0643,1000.763L436.4851,1001.8889 Z M431.01614,955.1366L431.45792,954.08246L432.04208,955.34924L432.22928,958.58545L431.6469,957.04785L431.43112,955.23737 Z M431.56512,945.783L432.58612,950.0152L432.5225,952.71155L432.35956,949.35754L431.78232,947.0887 Z M436.95917,968.58386L437.2528,967.5035L437.85947,972.1645L437.95538,973.88684L437.39337,971.0591L437.02875,968.5103 Z M442.6215,1169.0468L442.69534,1171.9539L442.26477,1173.3854L442.41516,1171.0889 Z M434.96594,1233.0406L434.53668,1237.3743L433.79843,1241.9459L432.85733,1247.1805L432.70886,1247.5742L433.5244,1242.4355L434.32788,1237.5149 Z M441.48004,1003.28107L441.14584,998.2374L441.264,997.19476L441.49268,1002.7715 Z M439.20575,980.7175L439.84796,985.6995L440.24136,987.76843L440.4739,991.0428L440.90775,992.37286L440.7233,991.1421L440.77203,988.9576L441.32578,989.47015L440.77548,985.5611L440.86285,982.5316L441.1483,982.4019L440.39783,977.80426L439.63882,974.2706L439.2102,973.867L438.67303,970.1628L439.21146,972.40295L438.55258,968.7608L437.95612,965.50757L437.45163,963.5609L438.2344,968.6557L438.3747,971.0957L437.7672,967.9408L438.29147,972.2556L439.14673,977.35034L439.73398,981.6035L439.46033,980.9999 Z M434.75412,952.4356L435.52716,951.8565L435.7162,953.9662L435.4456,953.60425 Z M431.10062,925.7157L431.48114,930.2575L431.38226,930.2426L430.865,925.70734L431.17126,925.8919 Z M441.86002,994.4696L441.93314,996.42676L441.88956,992.96497L441.36008,991.5557 Z M446.8212,1089.3951L447.05923,1084.9778L446.96945,1082.2594L447.2301,1085.0638L446.88614,1088.662 Z M430.11127,946.58875L430.75818,948.84467L431.14682,952.846L430.4922,948.6855 Z M437.52066,1216.3636L438.50473,1213.7825L437.7376,1217.4895L437.03113,1220.394L436.39688,1223.6285L437.11618,1218.7366L437.64835,1215.8904 Z M437.64474,1224.6208L438.14368,1219.8735L438.85605,1216.0089L438.78265,1217.3517L438.13358,1220.822 Z M444.56537,1022.0603L444.14285,1017.0202L444.5442,1018.92084L444.2566,1022.23517 Z"/>
</g>
<g style="fill:rgb(0,0,0); fill-opacity:1.0; stroke-linejoin: miter">
<path d="M433.82446,1046.1388L435.5692,1051.1974L437.13245,1055.5254L436.01056,1053.2405L434.26108,1047.811 Z M441.17307,1067.887L439.5212,1063.419L437.82654,1058.3792L438.60202,1060.1556L440.4476,1065.2325 Z M433.97485,1044.4779L435.75198,1048.9116L437.26926,1053.9337L435.58914,1049.1299L433.97498,1044.4784 Z M454.57495,1076.9197L453.64343,1073.6058L455.4805,1077.9849L456.32825,1080.7147L454.59537,1076.036 Z M440.72028,1037.4132L442.22913,1041.957L440.55444,1037.5101L439.81308,1034.0189 Z M519.547,1184.8652L522.8518,1188.2164L524.67365,1190.5117L520.7357,1186.4823 Z M522.174,1188.1973L525.5139,1191.8522L526.04236,1192.6034L522.3304,1188.4121 Z M568.38635,1231.0306L565.67426,1229.2524L564.5954,1228.5912L563.26825,1227.2224L566.4405,1229.4648 Z M577.46765,1238.6962L573.88153,1235.7554L575.51965,1236.8777L577.66766,1238.1654 Z M524.48254,1192.494L521.8376,1189.4781L523.1641,1190.4078L526.4689,1193.9614L526.76215,1194.4209 Z M471.72318,1118.7377L472.55338,1121.0995L470.84973,1117.5417L470.66586,1116.7012 Z M531.97534,1199.6088L534.94696,1202.1973L538.72314,1205.7788L534.7876,1202.4142 Z M539.71326,1207.8776L539.8464,1207.554L536.35767,1204.147L535.71277,1203.3896L539.1639,1206.7089L541.8788,1209.0514L542.08624,1208.5038L540.2388,1206.4404L543.9254,1209.9265L544.5803,1210.9017L544.672,1210.4692L548.0108,1213.4495L550.38477,1215.6672L551.4128,1216.9934L553.69006,1218.5833L556.0357,1220.2996L559.88416,1223.6786L563.7662,1226.7347L564.6969,1227.7382L561.0392,1224.9006L559.0741,1223.5916L559.3091,1224.0986L556.8189,1221.6791L555.48773,1221.0778L555.3002,1221.083L551.4613,1218.096L547.5278,1214.775L543.6114,1211.2867L539.8599,1208.0234 Z M424.97342,968.6531L424.46143,965.9115L424.80548,966.4118L424.9803,970.43866 Z M429.265,1002.7963L429.57025,1000.6325L430.38876,1005.6337L429.22815,1002.50604 Z M467.6145,1114.3154L467.91162,1113.3687L467.99664,1113.3602L468.35022,1115.0027 Z M469.76614,1118.7186L468.57706,1115.6215L469.34442,1115.9917L471.56445,1120.259L471.65314,1121.7549L473.18,1123.991L472.9632,1122.4636L475.31503,1126.7753L477.56885,1130.7488L477.08926,1130.2501L476.83273,1130.2227L479.09387,1134.2726L481.63074,1138.5317L479.5375,1135.52L477.9492,1132.6964L476.61237,1130.6086L475.35565,1128.7777L473.21173,1124.5895L470.55502,1119.9612 Z M422.86255,981.09985L422.37152,976.0748L422.73227,977.5399L423.5797,983.12225L423.49823,984.472 Z M539.1821,1214.0465L539.6355,1213.812L543.5594,1217.5491L539.453,1214.0675 Z M546.4201,1220.2699L542.4194,1216.8163L542.45166,1216.7361L546.8037,1220.4971L549.0256,1222.6042L546.44946,1220.2933 Z M467.66568,1122.6779L466.29883,1120.4751L463.6898,1115.7441L461.43365,1111.6248L461.88037,1111.5066L463.86038,1115.5677L466.25827,1120.0635 Z M461.59988,1112.6055L463.381,1116.7212L464.42886,1119.3789L466.78262,1123.1941L468.3374,1126.3718L468.4927,1126.9961L466.01706,1122.8177L463.53995,1118.1448L461.10287,1113.3678L460.33,1111.272L460.48196,1111.0653 Z M464.41843,1120.6924L462.3705,1116.7461L460.48828,1113.0922L461.40778,1114.4845L459.17932,1110.1024L461.58997,1114.6619L463.7649,1118.9392L466.02032,1123.4288L467.28488,1125.8932L464.43323,1120.9979L464.20593,1120.2446 Z M477.31198,1140.0059L478.49374,1141.374L476.35013,1137.7638L474.52725,1134.0537L473.9689,1133.4285L473.20578,1131.9016L473.80624,1132.2642L478.23395,1139.7224L478.4719,1140.4253L479.95978,1142.8856L480.72165,1144.529L480.2822,1144.3584L478.68243,1142.3479 Z M464.33667,1099.0234L465.5969,1101.2537L466.6838,1104.099L466.8059,1104.8593L467.20065,1104.8387L468.6317,1109.2549L468.15524,1108.6439L466.05148,1103.9941L464.4231,1099.3407 Z M477.17987,1142.9745L475.62686,1140.1002L475.7917,1139.7458L476.90854,1140.3002L477.47134,1140.6844L479.9785,1144.7762L478.87457,1143.3861L481.57693,1147.5538L482.10074,1147.945L481.63138,1146.3895L483.5986,1148.7012L483.5253,1149.4963L485.7459,1152.319L485.96616,1153.0869L483.10266,1149.4451L484.40536,1151.5026L482.44083,1148.862L485.60498,1153.0835L487.2388,1155.7739L489.13568,1159.1051L491.78937,1162.2258L494.90146,1166.199L498.25427,1170.5238L495.93277,1167.9954L496.21713,1169.0815L497.80713,1171.413L498.80585,1173.0994L502.23114,1177.1924L505.59015,1181.078L508.94244,1184.841L512.304,1188.5089L515.68945,1192.1051L519.11456,1195.6525L522.5967,1199.1727L526.1542,1202.6873L529.7212,1206.1326L533.40045,1209.6129L534.0608,1209.9568L533.6695,1209.387L537.30817,1212.7539L541.2439,1216.3629L545.20575,1219.7384L548.90283,1223.031L552.7948,1226.4875L553.5534,1227.1063L557.4311,1230.3354L561.34344,1233.5049L565.20135,1236.5542L569.10474,1239.5312L572.94354,1242.226L577.71484,1245.7573L581.07074,1247.9569L586.2801,1251.0466L588.9045,1252.5228L594.0235,1255.2197L598.4912,1257.0875L600.81165,1258.2863L601.9368,1258.6628L603.5913,1259.0372L608.66797,1260.7366L613.60754,1261.9156L609.66974,1260.8212L613.1204,1261.4495L618.2526,1262.3705L623.2897,1262.6368L626.4028,1262.2778L630.5756,1261.3289L635.7553,1259.2172L633.7552,1259.8872L632.1654,1260.3253L637.0329,1257.8706L640.7293,1254.744L639.6577,1255.695L634.94977,1258.9675L629.8554,1260.929L625.37213,1261.5122L628.8257,1260.7751L634.06036,1259.1355L638.2758,1256.1973L637.8901,1256.0437L633.56433,1258.6047L631.432,1258.9427L634.29877,1257.6763L630.1189,1259.189L625.7167,1259.9838L620.9147,1260.0991L615.9112,1259.5204L610.38464,1258.1265L615.5623,1259.2782L616.4267,1259.083L612.7577,1257.8691L609.06354,1256.9294L611.5153,1257.9147L606.62354,1256.4795L603.25635,1255.0668L598.7129,1253.22L594.0624,1250.9657L591.38495,1249.5406L586.8697,1246.9701L582.71295,1244.244L579.9446,1242.1213L576.36115,1239.1475L580.941,1242.525L585.17334,1245.4604L589.22644,1247.7354L588.86444,1247.459L590.09143,1247.8374L594.2575,1250.0546L593.147,1249.328L589.64325,1247.3394L585.9751,1244.9368L582.6628,1242.8424L579.34265,1240.3827L582.3371,1242.2279L586.40955,1245.0054L590.61914,1247.4924L592.2098,1248.2379L589.8829,1246.5393L586.49963,1244.7096L581.0211,1240.9531L582.58966,1241.7092L579.05023,1238.8757L583.2102,1241.9055L587.8039,1244.953L590.7974,1246.2426L586.6463,1243.8394L582.4772,1240.8271L578.75226,1237.8137L582.2643,1240.4L578.52203,1237.152L574.88837,1233.9767L570.38336,1230.5918L567.0257,1228.0436L562.96173,1225.3623L560.4133,1223.6262L559.6571,1222.7583L562.0536,1224.3867L558.0742,1221.2972L557.2961,1220.8828L557.2563,1221.2489L554.3905,1218.7346L550.72455,1215.6637L546.7077,1212.2488L544.21857,1209.5911L547.25024,1212.2712L543.6816,1208.85L542.63257,1208.0682L541.0503,1206.869L540.7904,1206.3029L542.84125,1207.519L541.10126,1205.8075L538.0727,1202.6805L534.23376,1198.8627L530.3391,1195.1163L528.2632,1193.5345L528.1973,1193.5448L524.6018,1189.929L522.0163,1186.7418L525.6962,1190.7891L524.18445,1188.558L520.23535,1184.108L516.7456,1180.2909L514.41376,1177.9248L511.49005,1174.0817L508.20303,1170.2107L505.05026,1166.5099L502.7509,1164.2144L505.92123,1168.3436L506.41077,1169.3043L503.4991,1165.727L501.3878,1163.4113L501.93185,1164.2909L501.79083,1164.7744L498.6117,1161.1794L497.305,1159.1018L497.02472,1159.2444L495.10138,1156.8494L496.3379,1159.1063L499.2312,1162.7173L502.45374,1166.6326L504.07166,1168.7933L500.79324,1164.8292L497.2622,1160.5524L493.9367,1156.4348L491.24515,1152.972L488.8046,1149.9454L487.08902,1147.8706L484.80383,1144.6017L482.86005,1141.1875L482.6982,1139.86L485.0115,1143.5143L487.5515,1147.0433L487.79642,1147.1772L487.00766,1145.8359L486.37933,1144.5487L484.28015,1140.6993L486.8581,1144.0844L487.4997,1145.5468L490.55637,1149.5724L492.38593,1152.5214L494.50522,1154.8474L492.7744,1152.5774L490.13696,1148.7896L489.41995,1147.3253L489.9583,1146.9658L487.4902,1142.986L484.70026,1138.414L483.38025,1136.597L481.09427,1132.5621L478.36502,1128.6117L477.91855,1127.9442L475.0556,1123.2377L473.42267,1119.5309L471.18796,1114.6278L469.2865,1110.1544L468.54108,1108.0762L470.22763,1111.9606L472.47168,1116.7611L471.7772,1114.6434L469.9901,1110.5162L467.96902,1105.7242L466.4782,1101.4186L466.02875,1099.9048L464.14624,1095.5547L462.60406,1091.2178L460.9281,1086.5656L459.17664,1081.6866L457.5155,1076.9589L455.88828,1072.2235L454.33377,1067.5605L453.04785,1063.5476L451.79596,1059.6113L450.1566,1054.6936L449.34146,1052.7794L450.9354,1057.5555L449.89694,1055.211L450.40714,1056.7147L450.95972,1059.6898L451.15646,1060.9219L452.58563,1065.1454L453.7915,1068.9802L455.1965,1073.3462L457.05682,1078.1277L457.79123,1080.8687L459.27194,1084.5444L459.52325,1085.6282L460.63568,1088.7596L461.97546,1091.3542L463.01984,1093.9064L464.6822,1098.442L464.6068,1098.9523L463.88498,1097.8484L462.7762,1095.7351L462.28708,1095.5099L460.58206,1090.8301L459.6073,1087.8693L460.6341,1090.1542L459.29886,1086.8857L457.88644,1083.026L459.19012,1085.6787L457.72726,1082.015L457.202,1081.3325L455.4105,1076.5724L454.4143,1073.2202L452.99457,1069.8894L451.5404,1065.5876L449.8921,1060.6906L448.79474,1057.4535L447.83414,1053.9094L446.21155,1051.042L446.1196,1051.5029L444.61716,1047.8446L443.10648,1042.7891L441.6548,1038.9005L440.5976,1034.8931L439.41525,1030.478L438.1052,1025.8333L438.27667,1028.4321L439.12173,1032.2216L439.65683,1034.7673L440.7565,1038.6062L439.5333,1035.9507L439.3753,1036.1355L440.11273,1039.6206L439.25684,1037.7548L438.59933,1036.2917L437.9556,1034.8008L437.16058,1031.5375L436.1978,1029.7081L434.8275,1025.4026L434.46606,1022.9187L433.08572,1018.23456L433.57358,1018.1296L432.58105,1013.9478L432.47162,1014.6822L432.969,1017.64575L431.84647,1014.83954L431.7049,1012.72906L430.23895,1007.3991L430.6182,1006.82245L431.32397,1009.0675L430.6723,1005.0605L430.32202,1003.4312L429.3485,998.80536L428.69955,993.5648L429.62076,998.63086L429.8582,998.0823L429.2704,994.8771L428.1191,990.22L427.32205,985.4078L426.76492,980.56067L426.28558,975.38837L425.85074,970.39575L426.4246,975.1023L426.23532,971.54663L425.74405,969.3469L425.4631,966.3347L425.05957,961.54626L425.70264,963.1564L425.40784,958.1885L424.78036,959.00525L424.76065,963.23694L424.64038,964.64166L424.5842,960.987L424.1482,960.77875L423.97223,963.0803L423.36783,966.0602L423.3302,966.9261L423.65936,968.1772L423.1952,968.29755L423.34073,971.1265L422.89932,969.4797L422.71698,971.9228L422.35187,970.03186L421.67206,971.20306L422.1416,975.16284L421.58444,973.0069L421.5212,970.3589L421.1799,972.67267L421.47043,976.6515L421.5663,980.201L422.26056,983.30927L422.3822,986.42053L422.88657,988.3253L423.76184,993.2451L424.07483,993.3833L424.42197,992.352L423.98297,988.8895L424.6295,992.50916L425.59955,997.1036L425.47144,997.4213L426.2231,1000.3516L426.54224,1004.07886L427.0182,1005.8309L426.99905,1007.01074L428.3046,1010.2868L429.46698,1014.67395L429.7389,1016.206L430.6776,1018.49493L429.6927,1013.699L428.35306,1008.2889L427.5062,1003.9004L427.2353,1001.5165L428.10577,1003.2696L429.36877,1006.6894L430.73514,1011.9825L430.683,1014.25323L430.0672,1010.858L429.15854,1007.3555L429.1923,1009.2329L430.08057,1012.60394L431.26828,1017.53357L432.69522,1023.18494L433.57266,1025.8213L432.39548,1020.95593L433.2622,1023.2746L433.87424,1023.9237L434.8653,1026.4421L435.35144,1029.289L434.9751,1030.0724L435.082,1032.3457L435.8038,1035.1938L436.07297,1035.1136L436.14847,1034.636L437.61517,1038.4276L437.2278,1039.6112L436.8503,1039.9905L435.969,1037.9941L435.2182,1034.1448L433.7781,1029.7625L432.69626,1028.24L433.3756,1031.1727L434.88135,1034.5272L435.53052,1036.1539L435.0258,1036.0975L435.0822,1038.7976L435.83917,1040.8457L436.0825,1042.2446L437.01013,1045.9069L437.56238,1047.5259L438.59366,1051.3673L439.5833,1055.0013L440.96194,1059.5278L441.90533,1062.6576L441.17648,1061.5144L441.6007,1063.1149L442.82172,1065.5325L443.8921,1069.4337L445.62735,1073.9318L446.0518,1075.7256L444.20816,1071.0045L442.4997,1066.4999L441.2436,1063.723L441.17474,1064.5443L442.77942,1069.0098L444.18015,1073.4651L446.0251,1078.1451L447.1237,1080.9968L448.798,1085.2703L447.5621,1083.5968L449.09326,1087.6132L447.64612,1084.2576L446.00922,1080.1503L444.0708,1075.5538L441.872,1070.9669L443.41397,1075.0369L445.17325,1079.6406L447.00525,1084.3611L448.98538,1089.3284L451.06638,1094.3639L453.19214,1099.29L455.34525,1104.0367L457.50568,1108.5366L459.65088,1112.7246L460.54156,1113.9639L462.74414,1118.1862L460.89786,1115.0591L462.79166,1118.8679L465.29413,1123.5673L467.8553,1128.255L470.44345,1132.8478L473.05798,1137.3257L475.69708,1141.6697L478.35803,1145.8604L481.0372,1149.8798L483.94055,1153.8466L485.72217,1156.1028L482.71313,1152.0132L479.62628,1147.5505L476.9865,1143.2512L476.72113,1142.4535 Z M423.5246,1000.8031L424.6217,1005.99554L424.70288,1006.7711L423.6195,1001.561 Z M425.6228,1005.4328L424.86456,1001.5096L424.36646,997.7079L425.0755,1001.07654L424.2046,996.0263L424.7784,996.98236L425.67743,1001.40985L426.57236,1006.1777L425.59708,1002.0148L425.98022,1005.5898L426.05145,1006.5101L425.18942,1003.0903 Z M420.6783,942.3037L421.0398,941.3095L420.53906,944.64856L420.33163,943.6519 Z M431.8742,1025.0957L431.2285,1022.3233L431.25452,1020.7249L432.3413,1024.878L431.80847,1025.0837 Z M421.9857,963.4544L421.54617,964.64355L421.37604,959.1149L421.7778,961.9346 Z M422.00494,962.1211L422.7166,962.69073L423.11462,962.55945L422.86618,964.0842L422.81784,966.8516L422.19437,964.39355L422.7565,964.37286 Z M423.82565,941.16534L423.80792,945.83563L423.5728,946.1846L423.68585,942.33777 Z M424.06516,949.7497L424.3385,955.08124L424.18015,958.09717L424.11258,958.3621L424.1832,954.748L423.85873,953.26495 Z M424.4969,953.2203L425.11536,954.6887L424.75858,955.1405L424.6235,954.5427 Z M428.79404,990.6545L429.36563,993.2067L428.39786,991.16785L428.54337,988.79865 Z M427.17865,980.79395L427.4457,980.39343L427.91043,982.1806L428.55304,987.1398L428.37057,987.3829L427.88528,985.9593L427.24017,982.8525L427.04575,979.6823 Z M545.9419,1212.6722L547.7466,1214.0309L550.5095,1216.6697L549.20166,1215.9188L548.05115,1214.6874 Z M617.37933,1258.163L621.67346,1258.4346L626.01575,1258.3196L630.36523,1257.5233L634.6544,1255.6436L636.35547,1254.4927L632.5416,1256.8925L628.1145,1258.243L623.49084,1258.6387L618.8796,1258.3568 Z M425.58517,948.64734L425.53622,951.3745L425.46954,948.1309L425.7717,945.8829 Z M437.1468,1026.235L435.8165,1021.2626L435.3083,1019.182L435.8012,1019.92645L437.00336,1025.5012 Z M430.25635,996.5385L431.19745,1001.7579L432.09503,1006.4669L432.3583,1005.7285L433.16525,1010.43536L434.02185,1012.97437L434.40985,1013.6205L433.29718,1009.7714L433.09833,1007.79144L433.45917,1008.5759L433.37427,1006.1746L432.67004,1002.9539L432.10242,998.8302L432.39407,999.1073L431.9704,996.50543L430.91724,991.1536L430.13223,988.1061L429.9707,989.6133L429.21115,986.17004L429.06848,984.26654L429.59592,985.87054L428.9496,982.0174L428.7474,979.46643L427.89246,975.11273L427.62393,973.9401L428.23566,978.9483L428.77954,983.9822L428.49847,982.70624L427.93582,979.6608L428.51044,984.29944L429.2159,988.39966L430.10306,993.41394L430.809,997.20856L430.94485,999.005L430.17307,994.64526 Z M427.043,967.83704L426.86917,969.29443L426.53635,967.56146L426.56058,966.3431 Z M426.0741,959.3599L426.57556,958.4988L427.06525,960.2853L426.97815,963.1791L426.59546,960.964 Z M429.49,923.584L428.4635,928.20544L427.52292,933.22144L428.3053,928.29297L429.26123,923.5373L429.78934,922.006 Z M435.2412,1014.61884L436.04684,1018.6777L435.95175,1016.7469L434.75693,1011.82776L434.15485,1010.9573 Z M480.24023,1131.0311L478.382,1127.3315L476.8926,1124.8761L475.42126,1121.6625L477.73862,1125.865L479.10425,1128.6309 Z M427.7908,966.01685L427.6115,961.194L427.78067,960.50946L428.09656,965.32385 Z M428.3602,967.52466L428.3537,969.03766L428.77954,971.9504L428.33887,969.85156 Z M484.09262,1135.4235L486.54514,1139.4213L488.84683,1143.1858L486.31018,1139.3345 Z M472.9534,1114.7759L475.36374,1118.6552L475.76492,1120.2925L473.30887,1115.4861 Z M429.35684,970.3413L430.0213,975.4632L429.51486,973.2506L429.01135,967.7594 Z M422.4809,950.4133L422.72925,951.6591L422.687,956.96326L422.33167,957.222L422.4552,953.2379 Z M596.8798,1250.9989L593.0437,1248.3959L596.51044,1250.0292L597.68585,1251.0085L601.95337,1253.2178L606.55,1255.1501L603.1519,1253.9187L598.3112,1251.7382L596.17633,1250.5858 Z M607.3099,1254.0154L603.1644,1252.6382L598.3539,1250.4305L595.97125,1249.2946L598.5519,1250.2389L601.2047,1251.5878L605.56525,1253.2416 Z M445.8288,1049.4956L444.37265,1045.0234L444.314,1043.8606L445.2496,1047.1732L445.60153,1049.8384L445.70758,1049.3904 Z"/>
</g>
<g style="fill:rgb(0,0,0); fill-opacity:1.0; stroke-linejoin: miter">
<path d="M461.11053,1108.7653L463.8708,1104.391L465.98624,1101.6283L463.24133,1105.7867 Z M471.606,1093.2432L469.0475,1097.0652L466.226,1101.1316L469.05576,1096.5671 Z M459.83466,1109.5265L462.3952,1105.0729L463.48096,1103.742L461.05872,1107.3228 Z M470.5306,1078.411L468.88416,1080.0137L471.0465,1076.6599L471.1334,1077.0742 Z M450.41104,1108.3163L452.5606,1105.1611L449.63504,1109.5513L450.1716,1108.5444 Z M506.6699,1097.5236L506.6417,1095.4742L506.89758,1092.3397L507.16397,1093.7845 Z M516.0157,1048.8552L517.3606,1045.4873L516.6075,1048.5066L515.1151,1053.3738L515.6862,1049.9713 Z M513.8978,1057.2749L513.0768,1061.5138L512.63226,1063.1981L513.4376,1058.7201 Z M511.11182,1066.7032L511.63376,1065.8755L512.8423,1060.6678L512.25385,1063.7776L511.11804,1068.8622L511.70288,1069.2706L512.5478,1066.7788L511.42993,1071.2695L510.87207,1073.1428L510.9597,1073.6732L510.188,1078.6649L509.70706,1078.9255L509.5641,1080.9653L508.90775,1085.1676L508.10724,1090.3215L507.69083,1094.4438L507.80435,1089.9274L508.05746,1087.3933L507.8797,1086.865L508.2702,1085.8528L508.0601,1085.3948L508.5345,1080.8806L509.42258,1075.6124L510.3894,1070.749 Z M495.62073,1049.9469L494.02036,1051.2937L494.2817,1050.0927L496.0795,1048.5735L497.72406,1046.1768L496.93875,1046.5441L500.06775,1042.4873L502.87393,1038.8129L500.80896,1041.8782L503.6428,1038.5559L506.67126,1034.8872L505.70493,1036.5126L503.39874,1039.2703L503.27127,1039.6833L500.2859,1043.7201L497.18842,1047.6533 Z M427.71094,1152.8135L424.83115,1157.0974L426.77713,1153.6613L429.41364,1149.424L427.48752,1152.8888 Z M504.26083,1076.6504L505.21698,1071.4626L504.8992,1073.8274L503.78012,1079.4406L503.83078,1077.4138 Z M499.77396,1050.6179L498.2441,1052.9904L495.27206,1057.0337L492.87802,1060.1937L495.2348,1056.7788L498.06787,1052.9069 Z M494.61124,1058.7584L497.523,1055.3773L499.51932,1053.1178L501.26456,1050.5448L503.59253,1047.6632L500.93564,1051.5844L497.98132,1055.5408L494.7907,1059.4949L494.45593,1060.2942 Z M499.76044,1053.842L497.36298,1056.9519L496.251,1058.4396L494.9803,1060.0935L495.5589,1059.08L498.40826,1055.238L501.2227,1051.6039L501.9482,1050.9314L499.1169,1054.9475 Z M510.24854,1037.6005L510.89093,1036.1016L507.75742,1039.9623L506.82294,1040.6897L505.24042,1043.3207L504.84256,1042.9032L509.83423,1036.6388L510.87326,1035.9418L512.6891,1033.4603L512.0624,1034.8092L512.2964,1035.0762 Z M482.24454,1061.4924L483.57193,1059.2299L484.2724,1058.713L486.047,1056.5074L487.6127,1054.7041L488.45255,1054.2441L485.229,1058.3344 Z M512.80566,1037.0859L510.49112,1039.6362L510.1116,1039.342L509.85132,1038.6385L512.5445,1035.094L512.1471,1035.8661L515.2716,1032.0487L514.9217,1032.044L515.12946,1031.0215L516.16327,1029.8342L517.6993,1027.731L518.7543,1027.1177L516.66986,1030.0468L516.8,1030.0214L517.56555,1029.3579L519.7299,1026.9102L522.5688,1023.9562L525.0102,1020.9619L519.64307,1015.7058L518.76416,1020.2074L518.7418,1017.2175L518.08716,1019.4987L517.63226,1022.02136L516.5866,1026.206L515.03424,1031.1503L513.65735,1035.636L512.1502,1040.5917L510.7724,1045.2357L509.41895,1049.9167L508.10126,1054.679L506.83212,1059.8668L505.88022,1064.5477L506.87625,1061.313L505.88303,1066.2502L504.79196,1071.3906L503.96902,1076.3254L502.87878,1081.8138L502.13257,1085.8802L501.64175,1087.8606L500.85312,1093.0809L500.26794,1098.1221L500.02805,1102.803L499.97302,1108.0032L499.70053,1113.0121L499.9423,1118.035L500.15353,1121.37L500.49976,1127.1768L501.05057,1131.5443L501.45343,1135.0789L501.4933,1133.7383L502.31326,1138.7733L503.31546,1143.6714L502.89716,1140.0238L503.85486,1144.6787L504.90622,1149.4562L506.19324,1154.2649L507.08295,1156.539L508.4831,1161.6052L507.89972,1158.3126L508.5647,1160.1954L509.8844,1164.8403L510.27866,1166.0044L508.8572,1160.6686L507.43896,1155.6481L506.993,1152.9181L508.33005,1157.6641L509.77988,1162.7471L510.66086,1164.1306L509.52023,1159.3203L509.78973,1158.8503L509.88086,1158.6847L508.7582,1154.288L507.5546,1149.7526L506.3806,1144.7416L505.61316,1140.0223L506.73587,1145.2595L506.48724,1142.9331L506.18488,1138.6493L506.32028,1141.3982L505.36774,1136.2338L504.9376,1132.5084L504.37314,1127.328L504.20908,1122.9742L503.9093,1118.8778L503.90207,1113.9635L504.07654,1110.3613L504.42822,1107.7738L504.2822,1113.2699L504.34692,1118.0786L504.58286,1120.3182L504.772,1120.0121L505.0487,1124.8196L504.99384,1121.8839L504.7819,1117.3807L505.0697,1114.5018L505.054,1109.9683L505.3598,1112.2684L505.34747,1117.2117L505.37518,1122.168L505.85754,1121.2924L505.51758,1116.3947L505.60278,1111.1848L505.94553,1111.8918L506.22824,1109.3414L506.0692,1114.7064L506.29443,1119.6927L506.30417,1117.0211L506.58282,1111.891L507.03833,1107.3208L506.96448,1109.8807L507.71097,1105.6478L508.03427,1100.3809L508.39706,1095.6566L508.55936,1091.1812L508.80533,1087.5919L508.81696,1089.7771L509.2837,1087.5802L509.642,1083.8267L509.14014,1084.6089L509.75998,1081.785L510.6721,1076.9468L511.5322,1072.6012L511.43417,1073.0603L512.2148,1071.008L512.5359,1068.8558L512.7894,1066.6317L513.20435,1067.0105L512.98596,1069.4462L514.2862,1064.4312L515.4552,1059.6327L516.7699,1054.535L516.8588,1053.3234L517.51263,1050.4669L518.9372,1046.0317L518.31104,1048.2214L518.9585,1047.729L520.91034,1042.0636L522.34607,1037.3052L523.4637,1033.941L525.2294,1029.0948L526.6542,1022.56995L526.5071,1019.2543L525.8062,1025.3292L525.9048,1022.7149L525.8218,1020.0143L525.99884,1017.76404L525.515,1019.3856L522.14136,1014.90405L521.2277,1015.764L520.49225,1017.0835L519.8836,1018.38745L522.80676,1015.0524L524.63556,1019.9792L524.4325,1022.2305L524.8193,1017.3769L520.7456,1017.8085L517.73596,1021.55756L515.4265,1024.6155L513.6265,1027.1271L510.77933,1030.6813L508.62454,1032.924L509.34842,1031.2078L511.7493,1028.1024L513.0769,1026.2637L511.93365,1027.4958L510.18427,1029.3534L508.89584,1030.3483L510.14606,1028.7974L513.42395,1024.6462L516.0858,1021.7153L518.0759,1018.8723L515.51324,1022.1018L512.50397,1025.3711L512.69574,1023.7837L509.5896,1027.3137L506.03952,1031.4664L504.4968,1033.6791L501.80548,1037.207L500.03555,1040.0151L497.8169,1042.9236L494.8527,1046.3031L491.45813,1050.1896L488.1949,1053.9828L488.59222,1053.2761L491.38345,1049.8829L491.27698,1049.409L488.95718,1052.2596L485.5399,1056.2054L482.25406,1059.7992L480.66052,1061.3287L477.79355,1065.0645L474.75244,1068.6678L471.58783,1072.5823L468.36966,1076.6862L465.17398,1080.8444L462.0803,1084.912L459.81558,1087.8746L456.86874,1092.0317L455.96777,1093.6528L458.7276,1089.7792L456.51733,1093.1451L459.27686,1089.5037L460.28677,1088.7554L462.52756,1085.8424L465.2235,1082.4023L468.2154,1078.4847L470.94077,1074.8093L473.31647,1072.1956L474.0338,1071.0271L476.13376,1068.6436L477.8156,1065.9951L479.82672,1063.6312L483.1464,1059.7505L481.8404,1062.2798L480.3874,1064.0194L480.27905,1064.8907L477.22104,1068.714L477.07205,1068.4293L475.41977,1070.2458L473.72717,1072.7468L474.4494,1071.1455L472.33655,1074.0773L471.623,1075.5707L468.6036,1079.5245L466.28372,1082.4508L463.99124,1085.7354L460.9801,1089.9274L458.97122,1092.8527L457.03732,1095.6902L457.4856,1095.5919L455.8013,1098.9534L452.8157,1103.1973L450.67657,1107.1741L448.1742,1110.8904L445.3002,1114.6204L445.6015,1114.5905L447.3056,1113.0747L449.23062,1110.5278L451.75177,1107.2147L449.2868,1111.4073L451.69122,1108.0432L452.48624,1107.8655L451.18692,1110.0515L450.27063,1111.9318L448.6173,1114.7875L447.6278,1116.9697L445.28555,1119.9055L443.28397,1122.7781L442.4165,1123.5475L439.90952,1127.2303L441.39246,1125.5005L441.45667,1126.0153L440.95123,1126.9818L438.15463,1131.2753L437.03928,1132.0538L437.5563,1130.8657L435.73666,1132.502L434.0968,1135.9594L431.10873,1140.2793L432.4517,1137.9146L432.29495,1137.5177L430.3157,1140.9083L428.02786,1145.0787L425.34952,1149.2618L422.53027,1153.485L419.82248,1157.7692L421.93494,1154.0972L419.3428,1157.9082L419.27628,1158.9368L416.41052,1163.5206L417.02188,1161.6919L413.79187,1166.9552L414.87195,1166.5469L417.6792,1162.3948L416.719,1164.0845L415.6112,1166.3496L417.54575,1163.7693L419.46393,1162.5145L419.9377,1161.2368L420.28296,1161.1936L422.2607,1158.5065L421.12424,1160.8196L422.88583,1158.952L422.04123,1160.7587L424.1519,1158.8241L425.48727,1157.1078L423.76566,1160.0604L424.282,1159.8062L426.48904,1156.3951L427.99774,1154.223L430.26965,1150.8706L432.4943,1147.5403L433.3215,1145.5529L433.9591,1143.9347L432.7466,1145.0176L430.91446,1147.2664L433.45865,1143.1665L435.8763,1139.6613L436.67502,1138.5514L438.14597,1136.538L438.77444,1135.5681L440.1645,1133.4392L442.0528,1130.0254L443.45596,1127.8362L444.7702,1125.2896L442.02856,1128.9497L438.9082,1133.4305L437.01715,1136.2915L435.48636,1137.7198L437.20093,1133.889L439.95346,1129.545L441.61346,1128.2037L439.46048,1130.9504L438.4127,1133.1393L440.2565,1130.8545L442.9661,1126.5875L446.06937,1121.8378L447.00262,1120.1447L444.38992,1123.6382L445.83575,1120.7615L446.63684,1119.0215L448.6235,1116.0831L449.19244,1116.4728L450.98022,1114.8588L452.90842,1111.601L450.761,1114.6293L452.83194,1111.0581L454.1629,1110.0077L454.87292,1109.4681L453.2739,1111.9335L450.56552,1116.0043L448.92502,1119.1587L450.8805,1117.0647L452.16986,1114.3136L453.2506,1112.2332L453.73944,1112.8064L455.615,1110.8882L455.73355,1110.9614L458.57742,1106.7578L459.6046,1105.1671L462.22858,1101.9L464.21954,1099.1449L467.1201,1095.5608L467.6198,1095.3185L467.77515,1095.2759L469.15317,1092.7305L471.81116,1089.3273L474.59183,1085.4297L472.9893,1088.1123L470.18747,1092.2255L468.58356,1095.0538L469.62793,1094.3401L472.23154,1090.8551L475.25586,1086.207L477.8534,1082.9725L479.88678,1079.7671L479.54303,1081.2568L482.0904,1077.9429L479.04797,1082.087L476.39127,1086.0928L473.97733,1090.2792L475.47104,1088.3319L478.34433,1084.2493L481.33124,1080.1057L484.353,1075.9741L487.34293,1071.9069L490.47418,1067.6311L493.404,1063.5731L496.0598,1059.7834L497.0466,1057.9602L497.878,1057.0818L498.36908,1056.7068L501.32397,1052.7299L504.52505,1048.538L507.70734,1044.4497L510.8058,1040.5188L513.7932,1036.749L516.7906,1032.9668L519.7895,1029.1606L521.025,1027.4847L517.79114,1031.5089L514.4585,1035.6411L511.89587,1038.419 Z M439.7858,1136.2074L437.68234,1139.5131L436.96823,1140.3752L436.23163,1140.9988L435.2959,1142.1274L436.98944,1138.9797L439.5884,1135.1738L437.96918,1138.0735L440.39954,1134.5061L439.23083,1136.8741 Z M447.95862,1121.3207L446.32675,1123.8201L446.22525,1122.9454L448.41367,1120.053 Z M418.60675,1165.9124L417.85953,1165.8577L418.72794,1163.6936L420.0673,1162.1033L419.85864,1163.9337L419.47412,1163.476 Z M411.1908,1173.6469L413.3375,1169.3463L415.4408,1166.445L413.85165,1169.3827L413.35025,1170.5414 Z M424.1663,1150.3341L423.32806,1150.9979L425.24548,1147.9462L428.02023,1143.7025L427.14383,1145.5085L424.99774,1149.3156L423.79028,1150.943 Z M510.4081,1073.3003L510.16302,1075.655L508.93475,1081.1384L509.6489,1076.4099 Z M508.0812,1145.1393L509.25525,1149.584L510.33917,1154.074L511.52866,1158.8744L512.9665,1163.9935L511.4894,1159.2307L510.20306,1154.3633L509.0612,1149.5112 Z M445.0999,1116.9608L442.27985,1121.1671L440.74567,1123.4457L443.48373,1119.0117 Z M430.9596,1138.4177L433.89166,1133.9016L435.99084,1130.6189L436.37274,1129.7281L438.75455,1126.2913L439.00314,1125.3336L437.15878,1128.2926L435.22504,1130.54L435.78406,1128.8296L433.40344,1132.6315L431.61966,1134.9899L431.0747,1135.2273L429.43698,1137.7727L426.64938,1142.2775L426.79947,1143.0153L426.49924,1144.1958L424.3335,1147.3966L425.196,1145.4891L423.46136,1148.2644L422.0977,1150.8849L419.72736,1154.2919L421.62216,1151.9906L424.5181,1147.5475L424.0747,1148.4861L423.54187,1149.701L425.77353,1146.2186L428.40808,1141.7506L430.36844,1138.5496L432.06403,1136.2715L430.2344,1139.4202 Z M417.40427,1158.962L418.7354,1157.2562L416.78168,1160.8375L417.55145,1158.9528 Z M413.8302,1165.6946L413.21747,1165.3143L413.67618,1164.7356L414.68228,1163.4976L413.604,1165.8646 Z M396.9507,1191.7023L399.7105,1187.6489L400.889,1185.9631L398.2358,1190.1295L395.6397,1194.1006 Z M438.7815,1124.5273L440.49756,1122.184L438.47806,1124.5819L436.3377,1127.7457L438.82333,1124.8477 Z M501.43637,1037.2395L498.5531,1040.5137L496.8527,1042.5402L495.44507,1044.0942L500.78775,1037.6686 Z M503.6856,1032.7174L506.68506,1029.0703L507.97217,1027.7537L504.6334,1031.6313 Z M416.84528,1155.8707L419.2431,1151.4525L417.40854,1155.136L416.55798,1155.9618 Z M412.82108,1174.0001L413.5372,1172.3696L416.25168,1168.1606L414.56198,1171.1143 Z M505.51736,1126.6405L505.7567,1123.4108L506.20477,1127.1901L505.93643,1129.3588L506.38113,1134.3464L506.09045,1133.0306L505.55957,1127.6716 Z M507.8685,1135.7053L507.07718,1131.1879L506.57635,1125.9355L506.8311,1125.8348L507.21924,1130.185L507.70135,1133.6678 Z M455.70407,1098.1426L453.04526,1102.1417L452.94894,1101.5739L455.73874,1097.7911L454.96527,1099.3792 Z"/>
</g>
<g style="fill:rgb(0,0,0); fill-opacity:1.0; stroke-linejoin: miter">
<path d="M587.94336,1056.5703L589.4075,1052.2642L589.6986,1051.8652L588.0503,1056.3167 Z M546.47003,1093.6959L546.09174,1100.0262L547.3508,1106.7814L558.13617,1108.3601L557.734,1108.8193L546.3927,1104.6251L545.9844,1097.7628 Z M574.00745,1090.0016L575.79956,1085.3789L576.6756,1083.5403L574.6038,1088.6581 Z M572.9832,1091.8386L570.2676,1095.9541L567.1102,1100.3093L563.1233,1104.6853L562.15295,1105.5001L566.44824,1100.8201L569.8243,1096.1987L572.0848,1093.0923 Z M547.2722,1091.3503L547.4537,1092.0596L546.9922,1102.7711L555.1833,1109.1691L546.9068,1103.1843L546.6917,1097.5422L547.0666,1092.7762 Z M550.95386,1065.2904L550.5728,1070.1215L549.81287,1074.8683L550.32416,1070.074 Z M550.1574,1107.9619L559.01984,1105.939L563.2125,1102.2023L561.3627,1104.1847L555.759,1108.0002 Z M558.0644,1106.2576L548.1105,1103.5347L548.01953,1101.4578L554.486,1108.1377 Z M534.52606,1065.8566L532.3252,1070.7595L531.1137,1073.536L533.32104,1068.0863 Z M550.12396,1083.3231L549.71484,1088.2043L549.31366,1091.0697L549.73846,1086.7013 Z M536.41315,1067.9309L538.8355,1063.3636L539.14355,1062.9879L536.83276,1067.2266 Z M632.27325,1074.1936L636.85394,1071.9633L641.551,1069.8416L637.8314,1071.6355L633.642,1073.5692 Z M549.75824,1056.3053L547.9783,1059.2522L550.1036,1055.3004L549.24176,1057.5377L549.2096,1057.2655 Z M547.4467,1060.803L545.7117,1063.5425L544.8914,1064.6985L546.5483,1061.8462L547.4129,1060.7592 Z M588.51654,1077.8156L588.5385,1080.5266L587.9209,1082.0393L588.3915,1078.6299 Z M538.0193,1152.5293L540.5847,1148.4263L541.42596,1147.423L538.5235,1151.762 Z M556.3878,1101.8115L556.3874,1097.6528L556.52124,1099.669L556.50793,1102.4307 Z M573.8897,1069.5265L572.08826,1073.6028L572.3833,1072.3378L574.07214,1067.9055L575.247,1064.9164L575.4881,1064.8429L573.4694,1069.7988 Z M555.1435,1084.6174L554.73224,1089.3855L554.4025,1090.4838L554.9148,1085.0165L555.62775,1080.1882L555.6238,1081.3424 Z M532.9872,1192.8424L528.851,1195.3582L520.7621,1194.6843L520.8798,1191.0127L526.64307,1196.2441L531.4629,1193.6111 Z M526.90753,1195.919L521.0,1191.8988L522.05475,1186.767L522.0206,1187.2815L521.09235,1193.4701 Z M559.3179,1163.9999L559.4611,1164.2709L557.19086,1167.745L559.857,1163.4642 Z M577.41254,1108.7212L579.0756,1107.1201L581.84375,1104.9507L577.6377,1108.4229 Z M571.8201,1113.5366L568.4389,1116.9167L570.0203,1115.4988L567.3797,1118.3085L564.0851,1121.5155L565.2048,1119.8842L568.22626,1116.9656 Z M586.19745,1102.0511L583.2998,1104.2473L579.1826,1107.496L582.58307,1104.5588L585.9128,1101.7731L587.33453,1100.7562 Z M581.0812,1112.2147L582.1049,1108.0131L583.48596,1102.0311L582.45624,1107.3223L581.3567,1111.7004 Z M584.4869,1095.655L585.20624,1090.7184L585.8062,1086.9089L585.11816,1091.956 Z M522.3431,1189.6793L521.7837,1193.5L527.3151,1194.7875L521.75867,1194.3395L522.13666,1188.9193L523.53357,1184.0524L523.65173,1184.036L523.2351,1186.0599 Z M587.0522,1079.3486L586.3772,1082.7263L586.5422,1080.3763L587.0954,1077.6406L587.4844,1073.773L587.1099,1077.8795 Z M527.39453,1173.9348L529.37994,1169.4596L531.12854,1165.7448L534.0244,1160.4865L531.382,1165.5377L529.3496,1169.8077 Z M536.1515,1158.4015L537.2465,1156.2528L534.53564,1160.4935L532.02673,1164.7744L529.67,1169.193L531.9011,1164.8517L534.375,1160.5271L537.11816,1156.2141L537.52185,1155.0895L537.9926,1153.9888L535.3171,1157.957L535.24146,1157.6333L538.24506,1153.2817L539.73694,1151.6084L540.72144,1150.0719L540.6019,1150.0596L541.8151,1148.1302L543.92847,1144.885L547.1368,1140.4747L545.55945,1142.8573L548.41724,1139.3898L551.21643,1135.5686L550.4988,1136.2601L553.33575,1132.5038L556.78625,1128.6888L560.2615,1124.7163L563.72675,1120.9357L566.6248,1117.8215L565.18384,1119.5948L561.6309,1123.5684L558.4775,1126.9375L559.2585,1126.4133L560.96173,1124.8102L557.6063,1128.8354L555.43646,1130.7704L555.88824,1130.568L556.4048,1130.1156L554.4973,1132.5569L551.5634,1136.379L548.54755,1140.3921L545.51855,1144.5409L542.47675,1148.8552L539.94604,1152.6693L536.9488,1157.1956 Z M525.8521,1110.9365L525.3844,1112.5638L524.74414,1113.5087L524.2357,1114.1929L526.3839,1109.6631L526.07947,1110.4915 Z M547.72266,1062.7255L546.51764,1064.3313L547.0259,1062.985L549.2624,1059.0352L548.3783,1060.9149 Z M586.9288,1070.1726L587.4172,1069.5974L587.73846,1067.3977L587.7654,1068.7919L587.19855,1072.5702 Z M585.82465,1077.8124L586.7162,1072.5526L586.9173,1072.7423L587.1307,1073.4003L586.63605,1077.7367L585.8595,1082.2684L585.46515,1082.7698L585.5017,1084.1434L585.20544,1086.3868L585.8298,1083.7858L584.9415,1089.7543L584.4039,1093.6036L583.72687,1097.9392L583.10657,1102.4928L583.65546,1097.6069L583.8132,1095.7389L582.9749,1100.9147L581.90924,1105.6172L580.6951,1110.4896L580.00006,1112.5061L581.16113,1107.7487L582.4425,1102.2994L582.91693,1099.9635L583.1619,1097.7117L582.88086,1098.6389L583.6491,1093.2969L584.4295,1089.0635L585.10944,1083.979L585.8174,1078.707 Z M528.11523,1107.591L530.03937,1103.2832L529.9738,1103.782L528.5269,1107.059 Z M532.1334,1098.3928L533.40564,1095.6592L531.131,1100.9373L532.5214,1097.291 Z M577.7058,1112.7196L577.95764,1112.9719L576.5246,1117.9967L576.82166,1116.4779 Z M535.78326,1095.0735L533.93,1098.8859L531.55774,1104.2042L533.24963,1100.3151L535.4496,1095.0314L537.4939,1090.2057L538.11316,1089.2488L536.0508,1094.1725 Z M542.707,1155.9231L541.3694,1157.2867L543.6164,1153.8651L547.8267,1147.8694L544.38135,1153.004 Z M550.95984,1143.9423L548.5203,1147.3649L544.9549,1152.483L546.04266,1150.7434L549.1593,1146.2484L552.50085,1141.8203L554.6662,1139.1449L552.6656,1141.9594 Z M582.2813,1081.0116L582.3616,1079.9379L582.9384,1074.7268L583.5636,1069.4288L584.07697,1064.9652L584.5653,1059.8989L584.7913,1061.1692L584.2226,1065.6217L583.66565,1070.2203L583.0446,1075.2656 Z M578.56793,1098.989L579.2292,1094.1057L579.7542,1092.3352L579.0704,1097.141 Z M583.9409,1063.1277L583.2823,1067.6471L582.56934,1072.1489L582.1837,1074.1578L581.8581,1077.9979L581.33984,1080.3092L580.7059,1085.312L580.0007,1090.1539L580.43945,1085.7994L581.00854,1081.1222L581.6506,1076.2346L582.34784,1070.9492L583.0006,1065.6538L583.5714,1063.2141L583.67096,1061.0364L583.70795,1059.46L583.9621,1062.9769 Z M581.341,1076.0691L582.14276,1071.1062L582.3504,1068.1844L582.9486,1062.6897L582.46484,1067.6268L583.0641,1063.2809L583.5389,1058.91L583.2267,1062.2754L582.6642,1067.4297L582.07794,1072.0265L581.38806,1076.8994L580.8881,1081.0591L580.19214,1085.5961L580.6398,1081.0336L581.24927,1075.8966L581.6343,1073.2997 Z M578.2932,1104.9086L579.2748,1100.2986L579.8264,1097.4346L579.1705,1102.1495L578.2678,1105.4766 Z M576.7795,1110.6879L576.87976,1110.8182L576.5927,1112.6843L577.88257,1107.5573L579.0617,1103.2728L579.5141,1102.064L579.96936,1099.2562L579.7864,1098.5254L580.333,1096.9785L580.5638,1096.7838L579.7513,1101.9005L577.22473,1111.9315L577.0333,1111.2632L575.9602,1114.6492L575.6708,1116.9639L574.40955,1121.1139L575.5475,1116.7487L574.8308,1118.3688L574.9525,1117.2603L576.2408,1112.3433 Z M592.1765,1046.4008L591.8781,1051.3914L592.0867,1052.2212L591.7297,1055.2275L591.6792,1054.041L591.2398,1057.4156L591.7165,1055.8003L590.97437,1060.8003L590.1265,1065.3057L590.20215,1064.0156L590.7562,1059.0576L591.36835,1053.7627L591.951,1048.5889 Z M546.81635,1065.9285L548.2721,1063.0692L548.51514,1062.9897L546.77167,1066.2 Z M574.4661,1113.916L575.30237,1111.7041L576.58466,1106.7958L576.15234,1109.2197L576.7257,1108.6338L576.41626,1110.9933L576.5655,1110.7338L575.27734,1115.5239L574.18054,1118.9602L575.35956,1114.7527L573.8752,1119.4019L572.6355,1123.7913L573.16003,1122.5396L573.4045,1122.1328L573.5773,1122.5842L573.15515,1124.5977L571.9136,1128.1692L571.87164,1127.4995L570.7399,1131.7014L569.4923,1134.6636L569.6575,1133.5814L571.1853,1129.129L571.10126,1128.9277L570.3222,1130.8228L571.95514,1125.9933L571.4495,1127.264L569.7725,1132.2843L568.9172,1133.9224L567.221,1138.54L565.5378,1141.937L564.347,1144.7106L562.49805,1148.5116L560.138,1152.8864L557.54956,1157.055L554.5625,1161.8241L556.04877,1159.051L558.2129,1155.3243L556.06464,1158.2053L555.0755,1159.6288L552.9245,1162.8031L552.33954,1163.4926L549.5406,1167.6158L546.54095,1171.6042L543.402,1175.3435L540.1959,1178.744L536.7001,1182.006L533.14276,1184.892L529.3706,1187.5125L525.4463,1189.7991L526.9773,1192.8474L527.40485,1189.9302L528.6502,1185.461L530.2,1180.8655L532.0336,1176.2723L534.0281,1171.8528L536.16846,1167.584L538.6153,1163.2109L537.9975,1163.9321L535.9733,1167.4213L538.08704,1163.5182L540.6284,1159.4114L543.5492,1155.1613L546.5302,1150.7789L549.42914,1146.6135L551.9817,1143.1741L555.4521,1138.7327L558.9611,1134.4669L561.2941,1131.7113L560.84216,1132.4606L564.2685,1128.5907L567.7405,1124.8798L571.1985,1121.3738L574.65063,1118.0448L578.1635,1114.8164L581.777,1111.6481L585.4746,1108.5518L589.24994,1105.404L593.7344,1101.7941L597.00977,1099.4028L600.1985,1096.9453L604.9785,1093.8698L606.60126,1092.8358L610.89264,1090.1874L615.8047,1087.3969L620.61847,1084.7377L624.11505,1082.7235L625.0657,1082.3718L630.2526,1079.765L628.29224,1080.6904L628.7578,1080.2664L633.19965,1078.0013L637.6795,1075.8329L642.24695,1073.6544L643.8811,1072.7715L639.3669,1074.8739L640.7273,1073.9705L645.3979,1071.8331L649.8126,1069.8518L654.2351,1067.8954L658.57544,1065.9897L662.77606,1064.1364L663.4021,1063.687L668.1101,1061.7085L672.77985,1060.7151L674.37823,1061.8035L671.51935,1060.4764L667.4247,1061.6217L672.46844,1060.3202L674.96436,1062.6549L674.6899,1067.0809L673.5344,1071.3313L674.62775,1067.6504L675.0417,1062.4844L671.97754,1060.1989L666.8502,1061.7183L662.43207,1063.5172L659.498,1064.6014L663.5979,1062.7228L668.55444,1060.728L673.5621,1060.2047L675.47375,1063.7601L675.137,1067.8914L675.8685,1064.2491L674.22797,1059.9941L669.2012,1059.8298L669.2771,1059.5073L674.6414,1059.68L671.71893,1058.9532L666.74963,1060.3167L662.436,1062.0839L658.175,1063.905L653.83905,1065.8116L649.1223,1067.9177L644.22577,1070.1272L638.891,1072.5466L641.53046,1071.1937L646.53784,1068.8999L647.5257,1068.1353L643.41406,1070.0814L640.1194,1071.1437L635.2532,1073.486L637.90515,1072.3657L638.7665,1072.1191L633.9622,1074.4581L629.9252,1076.4622L627.0081,1077.79L622.6974,1080.1035L618.00507,1082.5593L613.6208,1084.9933L610.2131,1086.7523L607.339,1088.6111L602.93304,1091.3271L598.8027,1094.0223L594.84015,1096.6383L592.6145,1098.2458L589.2372,1100.8073L586.8365,1102.6122L591.2856,1098.9902L595.59766,1095.81L599.7417,1092.966L603.5522,1090.472L607.18555,1088.1537L604.3172,1089.904L603.6899,1090.0955L608.27814,1087.2178L612.3866,1084.8448L613.9131,1083.8105L608.8498,1086.7756L605.5967,1088.6077L600.88684,1091.735L597.99744,1093.3835L594.31824,1095.8678L592.1695,1097.6139L589.3009,1099.6512L592.266,1097.1117L596.2159,1094.344L600.50836,1091.4409L604.7225,1088.6864L609.23804,1086.1923L608.8331,1086.26L606.4338,1087.3607L601.86255,1090.1274L598.9366,1092.1932L593.5885,1095.9008L590.84924,1097.719L593.48,1095.682L589.1023,1098.9496L588.56696,1099.1758L592.85864,1095.8939L597.5706,1092.6488L602.097,1089.67L605.5809,1087.2632L601.9254,1089.4608L597.99744,1091.9446L593.5315,1094.9601L589.2703,1098.1636L585.6655,1100.8502L592.019,1095.904L588.73224,1098.2346L585.22516,1100.8469L581.52454,1103.3964L577.04694,1107.0629L572.72845,1110.9244L569.2177,1114.2676L565.7939,1117.6567L563.3761,1120.6318L561.9834,1122.4061L558.381,1126.4426L556.79144,1127.9891L561.1977,1122.8505L560.1459,1123.854L556.7497,1127.7756L553.6623,1131.6144L555.4132,1129.6602L554.37286,1131.4016L554.7499,1130.666L551.3184,1134.884L548.2987,1139.0477L545.45044,1142.5454L542.3385,1147.0758L539.8368,1150.4166L540.40686,1149.3665L542.6448,1146.318L539.8208,1150.0459L537.00323,1154.1375L536.17523,1155.5612L537.4101,1153.9398L534.5209,1158.4725L533.7156,1159.348L534.2136,1158.0603L536.531,1154.4557L535.4335,1155.6693L532.39996,1160.6439L530.18835,1164.2711L527.6705,1169.1445L525.2355,1174.5316L523.1684,1180.0677L521.98566,1184.1862L522.7328,1181.8585L522.3375,1183.6317L520.92816,1188.8628L521.1813,1195.7736L529.1931,1195.5375L520.7353,1195.2589L520.6669,1188.8783L519.931,1193.3242L529.128,1195.9974L534.5812,1192.8224L539.0921,1189.5459L542.31067,1186.7319L544.7687,1184.3776L548.3643,1180.9318L551.8858,1176.9835L555.14685,1172.672L557.8902,1168.5123L560.70056,1164.1041L561.94324,1161.6633L559.0347,1166.0798L556.1604,1170.4426L555.74945,1170.7145L558.8762,1165.9629L561.0285,1162.5737L561.8442,1160.8016L563.78217,1157.5322L561.0185,1161.9639L561.04944,1161.6555L562.77734,1158.5034L564.8618,1155.0304L566.02344,1153.3302L565.3332,1154.2865L566.7437,1150.9849L568.12885,1148.3466L568.81464,1146.1544L566.7893,1150.1271L564.5065,1154.4384L562.1017,1158.5618L559.47363,1162.8608L556.3067,1167.7535L557.69507,1165.5673L560.4584,1160.935L563.2365,1156.4421L565.98016,1151.3809L568.2478,1146.6018L570.13995,1142.1849L571.699,1138.2727L572.8801,1134.8131L573.3451,1133.0337L574.70654,1128.9556L576.12915,1125.0979L577.6183,1119.9198L578.45807,1117.3284L578.95514,1116.3135L578.711,1118.1188L577.7716,1121.2852L576.6053,1125.5449L574.8628,1130.8738L575.2347,1130.0433L576.7808,1125.3997L575.8554,1128.5392L576.8698,1125.8137L578.36066,1121.5453L579.46405,1118.402L578.2107,1122.8379L578.03656,1123.2345L576.57544,1127.7927L575.10803,1132.567L573.59454,1135.9548L572.1344,1139.8191L569.907,1145.0776L570.2494,1145.2299L572.14813,1140.4473L573.7398,1135.989L575.32245,1132.098L576.12067,1130.4537L575.566,1133.8054L576.8953,1130.0636L578.5848,1125.2432L580.31244,1119.9038L581.77954,1114.7228L581.7989,1114.2283L583.14984,1109.0082L584.3182,1104.6833L585.168,1099.0979L585.0839,1097.7843L585.4916,1095.7843L586.14667,1090.4257L586.95374,1085.4338L587.6612,1081.7245L588.5172,1076.6256L589.43317,1071.089L590.22205,1066.3137L590.9822,1061.1614L590.6333,1063.9824L590.002,1068.3605L589.3637,1072.7582L588.8322,1077.6738L589.4277,1074.4163L589.9323,1070.8798L590.67456,1065.985L591.4303,1060.613L592.16315,1055.7391L592.7879,1050.8822L593.1133,1046.0474L593.32007,1046.015L592.631,1040.142L582.10376,1042.9751L580.27057,1047.5042L578.4763,1051.9528L576.5423,1056.7908L574.67395,1061.4491L572.69116,1066.3883L570.78674,1071.0754L568.8378,1075.7975L566.8736,1080.4153L564.95483,1084.6437L563.87616,1086.5444L561.27625,1090.3109L558.44855,1094.0798L555.5067,1097.2402L552.8048,1099.4147L555.98926,1096.9688L558.715,1093.9886L557.95496,1095.0768L555.6999,1097.3788L557.76886,1095.3801L560.36945,1092.2938L560.2641,1092.9832L562.2773,1090.2412L563.54346,1088.4895L566.07074,1084.1414L567.4565,1080.9948L569.33044,1076.8152L571.11554,1072.46L572.9914,1067.5726L574.4652,1063.7439L575.85754,1060.7799L577.09064,1057.716L578.34735,1053.6362L578.40546,1054.3137L579.7848,1050.2156L580.83044,1048.4296L581.5311,1045.801L582.3611,1044.1981L584.9068,1038.8281L592.661,1045.1982L592.27216,1049.8278L592.16504,1045.7933L592.18695,1045.2617L592.0151,1042.845L591.7565,1041.5587L591.3106,1040.5887L583.57684,1043.4572L581.515,1048.4441L579.63544,1053.0074L581.0851,1049.107L581.0468,1048.8724L579.1747,1053.6866L578.5794,1055.7366L577.03076,1059.253L578.5212,1055.3411L578.1012,1055.5864L576.5126,1060.1438L576.32684,1061.482L575.403,1063.779L573.4462,1068.6505L571.7332,1073.0138L570.4588,1075.9694L568.76465,1079.9785L567.5728,1082.7834L565.73145,1086.9211L563.08026,1090.8357L560.1202,1094.7845L558.78546,1096.4695L556.3256,1098.6749L554.1995,1100.5753L552.4362,1101.9204L554.8039,1100.5847L552.6686,1102.32L554.2102,1101.752L554.33484,1096.5896L554.68414,1092.5988L555.12885,1087.8596L555.60693,1084.2277L556.241,1078.5762L556.8328,1074.7455L557.52203,1069.7555L557.7341,1067.3306L557.1183,1070.4095L556.5796,1072.2278L555.96356,1076.9502L555.2407,1082.1095L555.2334,1081.6251L554.5711,1086.9098L554.6404,1084.3131L555.1731,1078.8041L554.6763,1082.0095L554.0585,1087.0455L553.61456,1089.0604L553.8763,1084.7178L554.10126,1085.1027L553.6361,1082.5704L554.0692,1080.0391L554.23816,1076.074L554.7418,1073.3672L555.0193,1070.8964L555.0279,1067.997L555.71893,1063.0923L556.14777,1061.9213L556.6754,1057.1322L557.14496,1052.6814L557.3306,1052.8723L557.71497,1050.1907L555.8365,1047.345L555.04254,1049.0729L557.6239,1049.6652L557.1218,1052.1014L557.36755,1049.1826L557.2551,1047.34L555.56525,1048.7476L553.0595,1053.2322L550.3048,1057.94L550.73895,1056.8878L552.3467,1053.6821L551.6061,1054.6716L548.8526,1059.1749L548.50476,1059.1307L547.3789,1061.8219L545.30304,1065.8325L543.1676,1070.3116L541.183,1074.4623L543.30255,1069.506L543.5834,1068.5945L543.5695,1068.2439L542.50543,1070.5345L540.9261,1074.6254L539.16113,1079.1263L537.2494,1083.6978L535.2336,1088.3191L533.1565,1092.9698L531.0609,1097.6296L528.9895,1102.2781L526.9852,1106.8945L527.7638,1104.9489L529.55505,1100.6663L527.7826,1104.4019L525.86334,1108.8441L526.0776,1109.0475L524.8501,1111.854L524.84625,1114.8094L525.07916,1110.4136L525.19403,1114.37L525.74817,1109.032L526.27826,1104.879L525.6607,1106.047L525.2507,1106.7802L524.5836,1112.2434L523.8371,1115.2092L524.3013,1113.7784L524.54156,1110.0668L524.56616,1109.589L524.3451,1110.3928L524.05255,1112.6791L523.4638,1115.1818L524.5785,1115.8259L525.1911,1115.0116L526.22186,1112.2688L526.2361,1112.534L526.885,1111.886L528.09625,1109.3833L528.8487,1107.8976L526.6144,1113.0737L528.95905,1108.7462L529.4148,1108.0264L529.9184,1107.6646L528.03076,1111.8203L529.5359,1109.7064L531.59924,1105.2413L532.73425,1102.6261L531.8232,1105.054L530.6227,1108.5138L529.3378,1110.6621L530.5112,1108.8965L532.4271,1104.4451L533.9133,1101.1937L535.66437,1097.9246L536.14044,1096.284L537.7688,1092.3188L539.2131,1089.2417L541.0661,1085.5228L541.2159,1084.6115L542.73376,1080.8658L544.6069,1076.617L544.25433,1076.6646L543.3591,1078.047L542.3926,1080.0847L541.2902,1082.399L541.23096,1081.8862L544.38007,1075.1738L544.8634,1073.5278L546.9814,1068.9089L546.1076,1071.1833L547.663,1067.7714L548.92865,1064.9858L550.4884,1062.7201L551.8562,1059.6821L550.6822,1062.5531L552.32135,1059.6752L554.63043,1055.1964L555.6606,1053.0007L558.03204,1048.9642L555.366,1048.6481L555.1808,1049.6395L554.98334,1052.8608L555.5488,1048.9391L556.65796,1050.2473L553.7226,1055.1705L551.2199,1059.5688L549.5691,1062.8723L548.4928,1064.3027L547.6114,1065.4939L548.76263,1062.8782L549.869,1059.9364L552.45,1055.3849L554.88214,1051.1294L556.9644,1047.3794L556.474,1048.9968L554.65967,1052.1572L552.4004,1056.2655L551.36633,1057.847L553.21277,1054.9819L554.25275,1053.5706L556.58295,1049.4412L556.0695,1049.3268L555.44965,1055.1155L554.73566,1060.5564L554.4269,1063.5631L554.80505,1061.7301L555.5139,1055.9286L555.4524,1058.1506L555.51086,1059.9147L555.4384,1061.394L555.25836,1064.4427L554.8293,1068.5594L554.3779,1070.6952L553.6518,1073.9653L553.65466,1072.6028L553.1117,1073.5055L552.74036,1076.4868L552.2426,1080.5619L552.5167,1080.0L552.89685,1075.9988L552.7711,1079.2213L552.4057,1082.9436L551.959,1086.4095L551.6088,1086.6356L551.03174,1087.377L551.40125,1085.1562L551.43604,1082.8887L552.13446,1078.6707L552.62115,1074.2822L553.0595,1070.1202L553.28314,1066.611L552.69086,1068.962L552.2596,1071.1019L552.396,1073.6202L551.88196,1077.5372L551.66724,1080.2638L551.5863,1081.4519L551.30505,1080.1339L550.6751,1083.3357L550.20294,1085.2003L549.99786,1087.7642L550.1015,1085.8496L549.44525,1092.113L548.90393,1094.7501L548.9301,1096.372L548.49335,1098.9697L549.0143,1104.6709L555.578,1107.2604L558.94073,1105.1946L563.32495,1101.3839L566.3387,1098.0125L568.1325,1095.603L566.56885,1098.0712L565.1136,1100.0123L568.4527,1095.5944L568.8976,1094.4957L570.25696,1092.7169L573.59534,1086.6362L575.4424,1082.0886L577.2263,1077.759L577.1512,1078.3701L575.2527,1083.2317L573.32556,1087.7954L570.9055,1092.1941L568.2155,1096.6625L570.0642,1094.0366L569.46967,1095.3319L571.01843,1093.0774L574.1407,1087.5939L576.12616,1083.0947L578.0171,1078.0115L579.8803,1073.628L580.5201,1071.751L582.23035,1067.1312L583.977,1062.8406L582.38385,1067.4893L583.95056,1063.7369L585.4445,1060.087L584.1715,1063.7592L582.2352,1068.7274L580.8675,1072.5188L578.8753,1077.8442L577.3682,1081.7974L575.6366,1086.9777L577.06323,1083.5408L578.88306,1078.9618L580.74414,1074.1815L582.5184,1069.5663L584.4034,1064.6152L586.22314,1059.7961L588.10345,1054.7748L589.9015,1049.9327L591.7064,1045.0477L583.6242,1043.8649L583.6308,1048.2473L583.34973,1053.0486L582.9715,1057.6726L582.5567,1062.1622L582.63116,1062.4104L582.27026,1066.8519L581.6931,1071.4102L581.9781,1068.3251L581.987,1066.9255L581.3942,1071.8708L580.71173,1077.1329L580.03784,1082.0659L579.29767,1087.2517L578.55963,1092.2642L577.80084,1097.2952L577.02313,1102.1163L575.7724,1107.1588L574.51086,1111.9718L573.244,1116.5538L571.90967,1121.1202L570.45917,1125.7937L569.0155,1130.181L567.58514,1134.2876L567.0405,1135.8684L568.6719,1131.4514L570.27905,1126.6777L571.8848,1121.5752L573.3464,1116.7433L574.68726,1112.3435L574.563,1112.9987 Z M569.0608,1096.8081L571.74646,1092.6099L574.49445,1087.3114L573.7999,1089.0952L571.8265,1092.8269 Z M559.3332,1107.364L561.9206,1104.948L565.4402,1101.2119L564.3738,1102.8048L559.9958,1106.8673 Z M555.4064,1108.4393L551.7423,1109.3457L547.4659,1104.1603L554.3057,1108.9473 Z M549.5049,1068.6661L551.5548,1064.6633L554.2639,1059.8091L553.88855,1060.5836L551.2482,1065.4646L549.5058,1068.6648 Z M534.89655,1100.352L536.89905,1095.7682L537.05383,1095.5693L535.1299,1099.8442 Z M552.2351,1060.5654L552.8438,1055.2245L553.453,1051.0522L552.75397,1056.731L552.4348,1061.175 Z M552.06134,1061.8739L549.7935,1066.0957L548.5155,1068.4585L546.6994,1072.1818L548.4137,1068.2949L547.9247,1069.0104L546.06134,1073.2538L545.46674,1074.3091L545.9527,1072.6654L547.99335,1067.9493L550.6985,1063.027L552.1147,1060.6489L549.45776,1065.4508L550.0415,1064.8799L552.00604,1061.2809L553.068,1059.5671L551.80963,1062.1799L550.4058,1064.8365 Z M528.53577,1080.9641L528.801,1080.319L528.49915,1081.7129L527.21954,1084.714L527.0952,1084.7494L528.48975,1080.6656 Z M554.2991,1050.3486L554.4315,1048.1578L554.28546,1050.6602L553.74225,1056.2983L554.15424,1051.9578 Z M529.37,1079.7993L529.9846,1078.9946L528.6889,1082.4202L527.43225,1085.1439L529.2161,1080.3846 Z M553.4929,1062.1052L554.13574,1057.7491L554.291,1055.4033L554.7918,1055.1093L554.2967,1059.5157L553.60474,1063.4379L553.4824,1062.6492 Z M522.2231,1112.9922L524.7842,1117.2626L521.92395,1112.1091L522.55505,1106.4668L522.59314,1107.2047L522.2281,1112.8243 Z M528.45605,1084.1619L530.00134,1079.7466L530.6035,1078.4459L528.7571,1083.2777 Z M522.4652,1110.909L522.8411,1111.7744L523.1724,1109.2511L523.2761,1111.3691L523.14886,1112.4161L523.7007,1116.5983L526.2076,1113.9401L523.7996,1117.1289L522.35077,1114.0624L522.5513,1115.2991L522.4989,1112.5305 Z M551.83167,1058.3146L550.74304,1059.4487L549.3868,1062.0266L550.41614,1059.4736L551.3461,1058.4525 Z M531.6235,1079.8857L530.2669,1083.9106L528.85626,1088.352L529.3543,1086.6412L529.97577,1083.9777 Z M528.01666,1092.5201L526.977,1097.1206L526.1543,1100.9781L525.30835,1104.4143L524.63257,1106.7477L525.4699,1102.9622L526.0581,1100.491L526.03723,1100.1635L526.98425,1095.9241 Z M527.08997,1097.5109L527.3924,1097.8889L526.95184,1100.1118L526.6504,1100.4869L525.9871,1103.0188 Z M538.8403,1078.6537L539.5734,1076.915L540.063,1076.2205L539.64636,1077.7828L538.47125,1079.9985L538.4532,1079.5685 Z M532.64484,1093.3237L531.67017,1095.0957L531.23883,1095.7297L533.01624,1091.1898L535.0479,1086.9861L537.2059,1081.8209L537.06116,1082.5284L536.8257,1083.2834L535.28674,1087.1276L533.54285,1091.5581L533.1388,1092.0322L532.38654,1093.9022 Z M542.5208,1148.0232L544.79663,1144.7275L545.81104,1143.1196L547.7504,1140.7617L548.45496,1140.0295L545.59454,1144.0908L545.6862,1143.6277L543.3183,1147.0857 Z M647.0794,1067.4017L651.3114,1065.4111L655.53955,1063.5355L659.7644,1061.7522L664.2416,1059.938L669.5581,1058.0017L676.17065,1059.2439L677.5341,1066.1382L677.5947,1062.9971L673.4579,1057.8798L667.4129,1058.8389L662.55035,1060.7958L657.8583,1062.7255L653.34546,1064.6346L648.8446,1066.6053 Z M529.68243,1091.2247L529.3329,1092.5074L528.4209,1095.5526L529.6737,1090.8634L531.3865,1085.9324L530.3322,1089.312 Z M556.9828,1066.3574L557.52875,1061.6246L558.2265,1056.2509L558.2431,1055.3643L558.7398,1053.1787L558.1225,1058.8302L557.2751,1064.5107 Z M540.7583,1072.3138L539.41174,1074.3145L541.3838,1069.8236L540.8061,1071.9347 Z M542.22485,1069.931L544.0841,1065.8004L546.8397,1060.6466L549.0955,1056.8453L548.90704,1056.897L549.3751,1055.9269L551.97174,1051.5123L553.87354,1048.3528L553.4352,1048.7654L559.50574,1047.7522L552.9461,1049.2703L552.1561,1050.7737L551.00336,1052.3829L549.0231,1055.384L550.7737,1052.4441L549.37335,1054.184L546.85394,1058.4531L546.0523,1060.0559L544.0495,1063.5854L543.33496,1064.5973L542.93353,1065.1104L541.892,1067.2516L540.391,1070.8594L538.1297,1076.1128L536.6659,1079.6885L535.9881,1081.9554L537.61444,1079.0059L536.107,1082.3734L534.7999,1085.6875L533.3344,1088.7544L535.3096,1084.0924L534.43384,1085.6304L532.72815,1089.9387L531.7783,1092.1167L530.5895,1094.6316L529.28864,1098.0835L527.90063,1100.8456L527.592,1102.4517L529.4039,1098.1494L531.5472,1093.231L533.709,1088.417L534.55365,1086.7162L532.47894,1091.5112L530.9413,1095.4241L533.0863,1090.5996L534.58606,1087.3463L536.3252,1082.9021L538.45325,1077.8788L540.28064,1073.6476L541.5447,1070.6133L543.91986,1065.5609L543.3369,1066.9183L541.5163,1071.2908L541.82776,1070.714 Z M523.7468,1111.26L525.2293,1108.3715L525.9987,1106.802L524.10297,1111.4562L525.57794,1115.192L524.0377,1111.3214 Z M526.41876,1107.0946L527.3464,1103.3198L527.2009,1106.6617L527.01636,1108.8889L526.56744,1110.1486L526.14,1113.7063L526.5079,1108.9283L526.2033,1108.6576 Z M546.7771,1056.1611L544.03125,1059.8523L541.4673,1063.9022L539.15424,1068.1716L540.98785,1064.6014L543.4891,1060.4117L546.11554,1056.6896L549.3941,1052.9263L547.34784,1055.4636 Z M560.009,1048.5854L559.2671,1051.9496L559.40576,1052.8604L559.63995,1052.3358L553.74976,1046.6681L551.93097,1049.4849L551.99963,1050.1724L554.3361,1046.5188 Z M584.9097,1102.1837L585.6724,1097.0498L586.4936,1093.2952L586.59753,1091.8799L587.3021,1087.9617L588.125,1083.5691L586.8868,1091.5173L585.3936,1100.4907L585.4223,1099.3032 Z M584.2326,1040.9268L582.5048,1045.5519L582.2595,1044.9509L583.3452,1043.2959 Z M522.05536,1112.914L527.0629,1113.0968L527.5221,1108.3866L527.5609,1109.0999L527.1626,1112.7509L521.65796,1113.2446 Z M522.5988,1111.0862L522.67303,1110.9207L523.35364,1109.4711L525.2627,1105.0295L525.708,1104.3562L523.4609,1109.5782 Z M583.4904,1111.7775L582.24774,1116.3955L580.84375,1121.0353L579.2578,1126.0853L580.53864,1121.5859L582.0455,1116.6846 Z M587.0467,1095.7007L587.2073,1095.4324L586.4196,1099.547L586.03723,1101.3522 Z M590.0754,1075.096L589.57764,1080.1538L588.9089,1084.087L588.6458,1084.8986L589.3919,1079.6642 Z M591.9517,1062.3573L591.8169,1062.219L592.4569,1057.3354L592.2083,1060.5125 Z M523.9652,1106.5325L525.9759,1101.7637L527.3458,1098.1609L525.9971,1102.064L523.86127,1106.9214L523.03656,1108.5614 Z M522.96497,1093.9604L521.6717,1099.3857L520.5621,1104.2167L522.17004,1096.5232 Z M526.48706,1093.152L526.9731,1092.3436L525.61914,1097.2617L524.43677,1102.451L523.6693,1105.5184L524.4313,1101.1168L525.18304,1097.7319 Z M616.17413,1082.423L611.5276,1084.757L610.667,1084.9614L615.32336,1082.2322L618.5106,1080.7463L618.6859,1080.8319L622.9784,1078.708L627.5687,1076.436L630.7817,1074.9323L626.9789,1076.8572L622.286,1079.2332L617.3738,1081.8131L613.5499,1083.8873 Z M630.8718,1073.6377L627.1767,1075.647L622.43243,1078.0505L617.61273,1080.5575L615.14526,1081.8047L612.91705,1083.0203L616.61163,1080.7783L619.8477,1079.1641L622.7379,1077.7855L627.09375,1075.4049 Z M554.9248,1102.9443L554.6595,1100.3762L554.9303,1095.3242L555.02356,1096.689L554.94073,1098.8567L554.98926,1102.5443L554.52924,1102.6102L554.59534,1101.5537 Z"/>
</g>
<g style="fill:rgb(0,0,0); fill-opacity:1.0; stroke-linejoin: miter">
<path d="M526.12427,986.1007Q475.39468,1009.75635,526.12427,986.1007"/>
</g>
<g style="fill:rgb(0,0,0); fill-opacity:1.0; stroke-linejoin: miter">
<path d="M515.682,994.36694L530.64075,990.35876L526.12317,991.56934L533.05756,989.7112L515.682,994.36694"/>
</g>
<g style="fill:rgb(0,0,0); fill-opacity:1.0; stroke-linejoin: miter">
<path d="M560.9484,973.2912Q465.13275,1004.42365,560.9484,973.2912"/>
</g>
<g style="fill:rgb(0,0,0); fill-opacity:1.0; stroke-linejoin: miter">
<path d="M543.8148,998.2347L543.2075,996.4276L544.96027,995.8952L547.9884,993.79596L549.9845,990.1434L552.7552,986.4722L554.55475,983.0597L555.7147,979.39374L555.01324,979.2297L553.07495,980.6899L551.5176,982.0933L550.77423,982.1851L550.6407,981.62915L549.3275,981.6112L546.85803,984.55164L545.86786,985.7214L544.02747,987.78265L541.80634,989.57043L541.83405,991.42584L542.052,992.6695L540.74756,993.5553L540.4888,992.55115L537.85864,994.3353L535.2711,994.2826L532.89197,993.9413L533.11426,995.0482L535.5659,995.0391L534.07874,995.39087L533.39386,996.0124L532.5607,996.9956L530.77136,997.58563L529.9632,995.44977L530.4005,993.7539L530.2501,991.29565L528.4897,991.5648L526.5473,992.1181L527.01587,994.2072L528.22626,997.2335L529.5849,996.646L530.0537,997.5402L530.67267,999.41077L529.6388,1000.0361L533.35266,1002.7455L535.12933,1003.311L536.2604,1003.84595L541.42035,1001.1462L544.22406,998.4749 Z M531.36584,994.2163L532.58765,995.12396L531.8334,993.05554L531.31323,992.96375 Z"/>
</g>
</g>
<defs>
<radialGradient id="grad0" gradientUnits="userSpaceOnUse" cx="556.0275" cy="946.143" r="234.27606" >
<stop offset="0.0%" style="stop-color:rgb(254,89,80); stop-opacity:1.0" />
<stop offset="50.0%" style="stop-color:rgb(254,0,14); stop-opacity:1.0" />
<stop offset="100.0%" style="stop-color:rgb(179,0,23); stop-opacity:1.0" />
</radialGradient>
</defs>
</svg>